<svg id="svg" xmlns="http://www.w3.org/2000/svg" xmlns:xlink="http://www.w3.org/1999/xlink" width="400" height="96.11111111111111" viewBox="0, 0, 400,96.11111111111111"><g id="svgg"><path id="path0" d="M76.092 7.678 C 74.533 8.369,73.021 9.701,71.495 11.730 C 70.041 13.662,69.896 13.720,67.631 13.281 C 61.404 12.077,39.518 12.993,33.611 14.705 C 25.365 17.097,21.353 24.150,24.835 30.135 C 26.729 33.391,31.566 32.686,30.863 29.256 C 29.805 24.094,29.814 23.989,31.495 22.309 C 33.475 20.328,44.444 18.073,44.444 19.646 C 44.444 19.757,43.824 22.892,43.066 26.614 C 39.063 46.271,37.904 56.238,39.444 57.778 C 42.248 60.582,45.878 58.618,46.382 54.024 C 47.124 47.247,47.912 42.124,49.774 31.944 C 50.837 26.139,51.839 20.951,52.002 20.417 C 52.327 19.345,66.262 18.896,66.905 19.936 C 67.072 20.207,66.702 22.395,66.082 24.798 C 63.679 34.110,62.315 54.837,63.908 57.814 C 65.681 61.127,69.495 58.425,71.635 52.338 C 75.539 41.235,79.807 37.835,78.012 47.258 C 76.374 55.862,77.671 58.625,83.332 58.592 C 86.133 58.576,87.013 58.303,89.165 56.786 C 92.137 54.692,92.302 54.665,93.581 56.078 C 97.047 59.908,106.531 59.614,112.209 55.501 L 114.600 53.769 115.917 55.452 C 120.386 61.162,129.161 59.367,133.079 51.942 C 134.700 48.870,134.984 48.611,136.724 48.611 L 138.611 48.611 138.953 52.186 C 139.699 60.002,146.301 61.104,149.935 54.020 L 150.939 52.063 151.586 54.634 C 152.742 59.224,157.375 60.218,162.331 56.939 C 164.738 55.345,165.000 55.283,165.000 56.303 C 165.000 57.378,166.841 58.889,168.152 58.889 C 169.873 58.889,170.919 57.332,172.450 52.492 C 175.788 41.943,181.094 37.562,178.832 47.222 C 176.469 57.314,180.880 61.581,189.167 57.222 C 192.813 55.304,192.778 55.313,192.778 56.303 C 192.778 57.394,194.627 58.889,195.976 58.889 C 197.712 58.889,198.775 57.518,199.772 53.994 C 202.538 44.223,209.079 36.415,210.328 41.393 C 210.801 43.276,209.487 45.143,206.550 46.759 C 204.347 47.972,204.155 48.259,204.016 50.563 C 203.581 57.728,212.618 61.401,219.225 56.744 C 222.135 54.692,222.304 54.667,223.590 56.088 C 226.403 59.196,234.433 59.650,239.557 56.992 C 242.701 55.360,243.333 55.245,243.333 56.303 C 243.333 57.378,245.175 58.889,246.485 58.889 C 248.176 58.889,249.190 57.393,250.817 52.500 C 253.792 43.554,257.778 38.797,257.778 44.194 C 257.778 49.267,259.721 50.937,265.030 50.427 L 267.778 50.163 267.781 51.887 C 267.796 60.316,273.194 61.491,275.497 53.567 C 278.789 42.237,283.320 37.722,282.143 46.944 C 281.137 54.831,282.218 58.889,285.324 58.889 C 287.145 58.889,288.130 57.650,289.180 54.037 C 291.904 44.669,297.306 37.642,296.447 44.583 C 294.714 58.600,297.370 61.967,306.411 57.211 C 309.526 55.572,309.619 55.558,310.358 56.613 C 312.317 59.409,317.643 59.393,320.846 56.581 L 322.779 54.884 324.394 56.612 C 325.282 57.563,326.781 58.495,327.726 58.684 C 329.701 59.079,329.755 59.297,328.575 62.101 C 324.836 70.986,324.756 80.432,328.398 82.983 C 334.091 86.970,339.455 79.388,341.290 64.763 L 341.981 59.248 344.907 58.434 C 350.233 56.952,355.349 50.921,356.422 44.857 C 358.025 35.806,350.060 29.856,344.402 35.878 C 342.822 37.561,342.222 37.579,342.222 35.944 C 342.222 33.245,339.549 32.495,337.019 34.485 C 335.592 35.608,335.556 35.791,335.556 41.942 C 335.556 48.836,334.816 50.612,331.184 52.444 C 328.041 54.029,327.688 52.309,329.251 43.013 C 330.384 36.277,330.202 35.556,327.373 35.556 C 325.869 35.556,325.069 35.238,324.573 34.444 C 321.598 29.680,310.423 38.193,308.725 46.519 C 307.727 51.412,304.521 54.442,302.490 52.411 C 301.456 51.377,301.457 51.352,302.786 45.055 C 304.126 38.706,304.197 35.387,303.016 34.206 C 300.588 31.778,295.030 34.804,291.137 40.674 C 288.331 44.905,288.199 44.980,288.906 41.929 C 291.589 30.360,282.796 30.467,276.257 42.082 C 274.190 45.753,274.078 45.357,275.389 39.030 C 276.493 33.704,276.193 32.986,273.104 33.565 C 270.747 34.008,270.122 34.996,268.876 40.247 C 267.207 47.280,264.096 47.070,264.725 39.967 C 265.600 30.082,256.175 31.834,250.983 42.521 C 249.763 45.032,248.837 45.806,249.181 44.028 C 249.284 43.493,249.800 41.276,250.328 39.102 C 251.543 34.092,251.221 33.080,248.552 33.513 C 245.072 34.078,243.730 36.705,242.999 44.380 C 242.556 49.026,241.952 49.963,238.227 51.788 C 234.841 53.445,231.035 53.714,229.028 52.436 C 227.605 51.531,227.381 50.556,228.595 50.556 C 236.337 50.556,242.257 40.101,237.237 35.292 C 231.116 29.427,220.000 37.103,220.000 47.195 C 220.000 52.019,214.975 54.735,211.528 51.774 C 210.060 50.513,210.333 49.739,212.827 48.089 C 218.724 44.187,218.489 34.698,212.468 33.568 C 208.643 32.851,203.601 36.573,200.557 42.361 C 199.017 45.289,198.333 45.684,198.333 43.647 C 198.333 41.366,199.172 39.904,203.291 35.000 C 212.837 23.636,215.562 10.542,208.952 7.804 C 200.810 4.432,192.275 22.618,192.232 43.430 C 192.221 48.721,191.239 50.710,187.747 52.516 C 184.448 54.222,183.959 52.482,185.556 44.722 C 186.952 37.934,186.975 35.451,185.651 34.253 C 182.702 31.584,176.581 35.385,172.815 42.222 C 170.796 45.886,170.506 44.582,172.009 38.599 C 173.163 34.006,172.839 33.088,170.218 33.513 C 166.821 34.064,165.454 36.711,164.706 44.188 C 164.177 49.469,163.989 49.921,161.591 51.657 C 156.927 55.036,156.276 52.405,158.949 40.993 C 160.402 34.788,160.259 33.663,157.986 33.442 C 155.556 33.206,154.806 34.190,152.777 40.280 C 147.993 54.640,142.941 53.995,146.650 39.498 C 148.076 33.928,147.657 32.920,144.192 33.570 C 142.007 33.980,141.141 35.277,139.994 39.856 C 139.041 43.665,135.262 44.024,134.216 40.405 C 133.383 37.520,130.953 34.660,128.618 33.816 C 126.300 32.978,126.251 32.693,128.026 30.365 C 135.528 20.530,134.810 6.116,126.882 7.403 C 119.636 8.578,113.468 23.704,113.073 41.271 C 112.890 49.398,112.825 49.536,108.082 51.858 C 104.646 53.541,100.903 53.793,99.013 52.468 C 97.565 51.455,97.404 50.556,98.671 50.556 C 106.165 50.556,112.166 40.243,107.429 35.506 C 101.243 29.320,90.000 36.909,90.000 47.270 C 90.000 50.073,88.869 51.795,86.389 52.769 C 83.641 53.848,83.376 51.951,85.049 43.203 C 86.339 36.460,86.172 34.702,84.153 33.782 C 80.816 32.261,75.636 35.822,72.094 42.072 L 70.278 45.278 70.107 42.923 C 69.950 40.750,70.189 40.275,73.218 36.757 C 81.919 26.646,85.458 17.828,83.363 11.478 C 82.249 8.103,78.984 6.396,76.092 7.678 M78.222 13.444 C 80.036 15.259,77.951 23.380,74.228 28.997 C 71.200 33.566,70.581 33.691,71.219 29.603 C 72.980 18.309,76.036 11.258,78.222 13.444 M127.824 13.976 C 129.161 16.474,127.577 22.718,123.644 30.455 C 119.722 38.170,119.434 37.886,121.119 27.972 C 123.220 15.618,125.810 10.212,127.824 13.976 M207.293 14.657 C 208.254 18.250,204.949 27.342,201.111 31.667 L 199.386 33.611 199.728 30.833 C 201.184 19.010,205.811 9.116,207.293 14.657 M125.012 40.139 C 125.025 42.074,126.709 46.284,127.720 46.909 C 129.297 47.883,127.759 51.391,125.175 52.713 C 119.940 55.390,117.259 44.113,122.071 39.654 C 124.065 37.805,124.997 37.959,125.012 40.139 M323.320 39.583 C 323.292 42.270,321.216 50.150,320.165 51.564 C 316.200 56.895,313.172 50.474,316.528 43.850 C 318.700 39.562,323.351 36.640,323.320 39.583 M103.424 40.255 C 104.195 41.947,103.049 43.956,100.386 45.580 C 96.842 47.741,95.651 46.284,97.448 41.983 C 98.796 38.758,102.283 37.750,103.424 40.255 M233.339 40.011 C 234.481 42.145,231.722 45.586,228.194 46.424 C 226.774 46.762,226.667 46.664,226.667 45.033 C 226.667 40.472,231.599 36.759,233.339 40.011 M349.425 40.519 C 351.331 44.080,347.563 52.350,343.472 53.586 C 341.197 54.273,341.594 44.088,343.946 41.408 C 345.941 39.136,348.466 38.726,349.425 40.519 M334.776 68.260 C 333.944 75.001,333.116 77.773,331.809 78.199 C 329.028 79.104,330.318 68.255,334.053 59.319 L 335.278 56.389 335.444 58.947 C 335.535 60.354,335.235 64.545,334.776 68.260 " stroke="none" fill="#000000" fill-rule="evenodd"></path></g></svg>