<svg width="92.25" height="122.88" xmlns="http://www.w3.org/2000/svg">
 <style type="text/css">.st0{fill-rule:evenodd;clip-rule:evenodd;}</style>

 <g>
  <title>background</title>
  <rect fill="none" id="canvas_background" height="514" width="514" y="-1" x="-1"/>
 </g>
 <g>
  <title>Layer 1</title>
  <g id="svg_1">
   <path fill="#ff5252" id="svg_2" d="m68.51,106.28c-5.59,6.13 -12.1,11.62 -19.41,16.06c-0.9,0.66 -2.12,0.74 -3.12,0.1c-10.8,-6.87 -19.87,-15.12 -27,-24.09c-9.84,-12.34 -16.03,-26.02 -18.15,-39.2c-2.16,-13.36 -0.14,-26.22 6.51,-36.67c2.62,-4.13 5.97,-7.89 10.05,-11.14c9.38,-7.47 20.09,-11.42 30.77,-11.34c10.28,0.08 20.43,3.91 29.2,11.92c3.08,2.8 5.67,6.01 7.79,9.49c7.15,11.78 8.69,26.8 5.55,42.02c-3.1,15.04 -10.8,30.32 -22.19,42.82l0,0.03l0,0zm-22.39,-82.52c12.68,0 22.95,10.28 22.95,22.95c0,12.68 -10.28,22.95 -22.95,22.95c-12.68,0 -22.95,-10.27 -22.95,-22.95c-0.01,-12.68 10.27,-22.95 22.95,-22.95l0,0z" class="st0"/>
  </g>
 </g>
</svg>